# xmcd
#
# Track frame offsets: 
#        150
#        41252
#        60407
#        88250
#        102717
#        115982
#        136940
#        159492
#        184630
#        205360
#        224690
#        251682
#        266215
#        280952
#        295575
#        309770
#        321460
#        334682
#
# Disc length: 4647 seconds
#
# Revision: 2
# Processed by: cddbd v1.5.2PL0 Copyright (c) Steve Scherf et al.
# Submitted via: ExactAudioCopyFreeDBPlugin 1.0
#
DISCID=17122512
DTITLE=Mahalia Jackson - Mahalia Spirituals
DYEAR=2011
DGENRE=Gospel
TTITLE0=We Shall Overcome
TTITLE1=Rusty Bell
TTITLE2=If I Could Help Somebody
TTITLE3=Holding My Saviour's Hand
TTITLE4=This Is My Faith
TTITLE5=Elijah Rock
TTITLE6=We Have Come A Mighty Long Way
TTITLE7=I Would Rather Have Jesus
TTITLE8=Down By The Riverside
TTITLE9=It's In My Heart
TTITLE10=Come On Children, Let Us Sing
TTITLE11=What Could I Do?
TTITLE12=Even Me
TTITLE13=Go Tell It On The Mountain
TTITLE14=Silent Night
TTITLE15=Last Mile Of The Way
TTITLE16=Oh, My Lord
TTITLE17=God Shall Wipe All Tears Away
EXTD=
EXTT0=
EXTT1=
EXTT2=
EXTT3=
EXTT4=
EXTT5=
EXTT6=
EXTT7=
EXTT8=
EXTT9=
EXTT10=
EXTT11=
EXTT12=
EXTT13=
EXTT14=
EXTT15=
EXTT16=
EXTT17=
PLAYORDER=
